solid OpenSCAD_Model
  facet normal 0.707107 0 -0.707107
    outer loop
      vertex 95.3887 0.1 95.5301
      vertex 4.85858 146.667 5
      vertex 95.3887 146.667 95.5301
    endloop
  endfacet
  facet normal 0.707107 0 -0.707107
    outer loop
      vertex 4.85858 146.667 5
      vertex 95.3887 0.1 95.5301
      vertex 4.85858 0.1 5
    endloop
  endfacet
  facet normal -0.707107 0 -0.707107
    outer loop
      vertex -45.8912 0.1 46.0326
      vertex -4.85858 146.667 5
      vertex -4.85858 0.1 5
    endloop
  endfacet
  facet normal -0.707107 0 -0.707107
    outer loop
      vertex -4.85858 146.667 5
      vertex -45.8912 0.1 46.0326
      vertex -45.8912 146.667 46.0326
    endloop
  endfacet
  facet normal 0 -1 0
    outer loop
      vertex 4.85858 0.1 5
      vertex 49.4975 0.1 141.421
      vertex -45.8912 0.1 46.0326
    endloop
  endfacet
  facet normal 0 -1 0
    outer loop
      vertex 4.85858 0.1 5
      vertex -45.8912 0.1 46.0326
      vertex -4.85858 0.1 5
    endloop
  endfacet
  facet normal 0 -1 -0
    outer loop
      vertex 49.4975 0.1 141.421
      vertex 4.85858 0.1 5
      vertex 95.3887 0.1 95.5301
    endloop
  endfacet
  facet normal -0.707107 0 0.707107
    outer loop
      vertex 0 5 7.07107
      vertex 48.6136 146.667 55.6847
      vertex 0 146.667 7.07107
    endloop
  endfacet
  facet normal -0.707107 0 0.707107
    outer loop
      vertex 48.6136 146.667 55.6847
      vertex 0 5 7.07107
      vertex 48.6136 5 55.6847
    endloop
  endfacet
  facet normal -0.707106 0 0.707108
    outer loop
      vertex 52.1491 5 59.2202
      vertex 91.9239 146.667 98.9949
      vertex 52.1491 146.667 59.2202
    endloop
  endfacet
  facet normal -0.707106 0 0.707108
    outer loop
      vertex 91.9239 146.667 98.9949
      vertex 52.1491 5 59.2202
      vertex 91.9239 5 98.9949
    endloop
  endfacet
  facet normal 0.707107 -0 0.707107
    outer loop
      vertex -42.4264 5 49.4975
      vertex 0 146.667 7.07107
      vertex -42.4264 146.667 49.4975
    endloop
  endfacet
  facet normal 0.707107 0 0.707107
    outer loop
      vertex 0 146.667 7.07107
      vertex -42.4264 5 49.4975
      vertex 0 5 7.07107
    endloop
  endfacet
  facet normal 0 1 0
    outer loop
      vertex 48.6136 5 55.6847
      vertex -42.4264 5 49.4975
      vertex 6.18718 5 98.1111
    endloop
  endfacet
  facet normal -0 1 0
    outer loop
      vertex -42.4264 5 49.4975
      vertex 48.6136 5 55.6847
      vertex 0 5 7.07107
    endloop
  endfacet
  facet normal 0 1 0
    outer loop
      vertex 91.9239 5 98.9949
      vertex 9.72272 5 101.647
      vertex 49.4975 5 141.421
    endloop
  endfacet
  facet normal 0 1 0
    outer loop
      vertex 9.72272 5 101.647
      vertex 91.9239 5 98.9949
      vertex 52.1491 5 59.2202
    endloop
  endfacet
  facet normal 0.70711 -0 0.707103
    outer loop
      vertex 9.72272 5 101.647
      vertex 52.1491 146.667 59.2202
      vertex 9.72272 146.667 101.647
    endloop
  endfacet
  facet normal 0.70711 0 0.707103
    outer loop
      vertex 52.1491 146.667 59.2202
      vertex 9.72272 5 101.647
      vertex 52.1491 5 59.2202
    endloop
  endfacet
  facet normal -0.707117 0 0.707097
    outer loop
      vertex -45.8912 146.667 46.0326
      vertex -42.4264 5 49.4975
      vertex -42.4264 146.667 49.4975
    endloop
  endfacet
  facet normal -0.707107 -1.4225e-05 0.707107
    outer loop
      vertex -45.8912 0.1 46.0326
      vertex 6.18718 5 98.1111
      vertex -42.4264 5 49.4975
    endloop
  endfacet
  facet normal -0.707106 -4.09528e-05 0.707108
    outer loop
      vertex 49.4975 0.1 141.421
      vertex 6.18718 5 98.1111
      vertex -45.8912 0.1 46.0326
    endloop
  endfacet
  facet normal -0.707117 0 0.707097
    outer loop
      vertex -45.8912 0.1 46.0326
      vertex -42.4264 5 49.4975
      vertex -45.8912 146.667 46.0326
    endloop
  endfacet
  facet normal -0.707143 -0.000696969 0.707071
    outer loop
      vertex 6.18718 5 98.1111
      vertex 49.4975 0.1 141.421
      vertex 9.72272 5 101.647
    endloop
  endfacet
  facet normal -0.7071 0 0.707114
    outer loop
      vertex 9.72272 5 101.647
      vertex 49.4975 0.1 141.421
      vertex 49.4975 5 141.421
    endloop
  endfacet
  facet normal -0.707143 0 0.707071
    outer loop
      vertex 6.18718 5 98.1111
      vertex 9.72272 146.667 101.647
      vertex 6.18718 146.667 98.1111
    endloop
  endfacet
  facet normal -0.707143 0 0.707071
    outer loop
      vertex 9.72272 146.667 101.647
      vertex 6.18718 5 98.1111
      vertex 9.72272 5 101.647
    endloop
  endfacet
  facet normal -0.707107 0 -0.707107
    outer loop
      vertex 48.6136 5 55.6847
      vertex 6.18718 146.667 98.1111
      vertex 48.6136 146.667 55.6847
    endloop
  endfacet
  facet normal -0.707107 -0 -0.707107
    outer loop
      vertex 6.18718 146.667 98.1111
      vertex 48.6136 5 55.6847
      vertex 6.18718 5 98.1111
    endloop
  endfacet
  facet normal 0 0 -1
    outer loop
      vertex -4.85858 0.1 5
      vertex 4.85858 146.667 5
      vertex 4.85858 0.1 5
    endloop
  endfacet
  facet normal -0 0 -1
    outer loop
      vertex 4.85858 146.667 5
      vertex -4.85858 0.1 5
      vertex -4.85858 146.667 5
    endloop
  endfacet
  facet normal 0.707104 0 0.707109
    outer loop
      vertex 49.4975 5 141.421
      vertex 49.4975 0.1 141.421
      vertex 91.9239 5 98.9949
    endloop
  endfacet
  facet normal 0.707107 -0 0.707107
    outer loop
      vertex 91.9239 5 98.9949
      vertex 95.3887 146.667 95.5301
      vertex 91.9239 146.667 98.9949
    endloop
  endfacet
  facet normal 0.707107 0 0.707107
    outer loop
      vertex 91.9239 5 98.9949
      vertex 95.3887 0.1 95.5301
      vertex 95.3887 146.667 95.5301
    endloop
  endfacet
  facet normal 0.707104 -3.26859e-06 0.707109
    outer loop
      vertex 95.3887 0.1 95.5301
      vertex 91.9239 5 98.9949
      vertex 49.4975 0.1 141.421
    endloop
  endfacet
  facet normal 0 1 0
    outer loop
      vertex 95.3887 146.667 95.5301
      vertex 52.1491 146.667 59.2202
      vertex 91.9239 146.667 98.9949
    endloop
  endfacet
  facet normal 0 1 0
    outer loop
      vertex 95.3887 146.667 95.5301
      vertex 48.6136 146.667 55.6847
      vertex 52.1491 146.667 59.2202
    endloop
  endfacet
  facet normal 0 1 0
    outer loop
      vertex 4.85858 146.667 5
      vertex 48.6136 146.667 55.6847
      vertex 95.3887 146.667 95.5301
    endloop
  endfacet
  facet normal 0 1 0
    outer loop
      vertex 48.6136 146.667 55.6847
      vertex 4.85858 146.667 5
      vertex 0 146.667 7.07107
    endloop
  endfacet
  facet normal 0 1 0
    outer loop
      vertex 52.1491 146.667 59.2202
      vertex 6.18718 146.667 98.1111
      vertex 9.72272 146.667 101.647
    endloop
  endfacet
  facet normal 0 1 0
    outer loop
      vertex 6.18718 146.667 98.1111
      vertex 52.1491 146.667 59.2202
      vertex 48.6136 146.667 55.6847
    endloop
  endfacet
  facet normal 0 1 -0
    outer loop
      vertex -4.85858 146.667 5
      vertex -42.4264 146.667 49.4975
      vertex 0 146.667 7.07107
    endloop
  endfacet
  facet normal 0 1 0
    outer loop
      vertex -42.4264 146.667 49.4975
      vertex -4.85858 146.667 5
      vertex -45.8912 146.667 46.0326
    endloop
  endfacet
  facet normal 0 1 0
    outer loop
      vertex -4.85858 146.667 5
      vertex 0 146.667 7.07107
      vertex 4.85858 146.667 5
    endloop
  endfacet
endsolid OpenSCAD_Model
