solid OpenSCAD_Model
  facet normal 0 0 -1
    outer loop
      vertex 0.1 0 0.1
      vertex 135 146.667 0.1
      vertex 135 0 0.1
    endloop
  endfacet
  facet normal -0 0 -1
    outer loop
      vertex 135 146.667 0.1
      vertex 0.1 0 0.1
      vertex 0.1 146.667 0.1
    endloop
  endfacet
  facet normal -1 0 0
    outer loop
      vertex 0.1 0 0.1
      vertex 0.1 146.667 65
      vertex 0.1 146.667 0.1
    endloop
  endfacet
  facet normal -1 -0 0
    outer loop
      vertex 0.1 146.667 65
      vertex 0.1 0 0.1
      vertex 0.1 0 65
    endloop
  endfacet
  facet normal -0 0 1
    outer loop
      vertex 1.5 146.667 1.5
      vertex 74.625 0 1.5
      vertex 74.625 146.667 1.5
    endloop
  endfacet
  facet normal 0 0 1
    outer loop
      vertex 74.625 0 1.5
      vertex 1.5 146.667 1.5
      vertex 1.5 0 1.5
    endloop
  endfacet
  facet normal -0 0 1
    outer loop
      vertex 76.125 146.667 1.5
      vertex 135 0 1.5
      vertex 135 146.667 1.5
    endloop
  endfacet
  facet normal 0 0 1
    outer loop
      vertex 135 0 1.5
      vertex 76.125 146.667 1.5
      vertex 76.125 0 1.5
    endloop
  endfacet
  facet normal 1 -0 0
    outer loop
      vertex 1.5 0 65
      vertex 1.5 146.667 1.5
      vertex 1.5 146.667 65
    endloop
  endfacet
  facet normal 1 0 0
    outer loop
      vertex 1.5 146.667 1.5
      vertex 1.5 0 65
      vertex 1.5 0 1.5
    endloop
  endfacet
  facet normal 1 -0 0
    outer loop
      vertex 76.125 0 65
      vertex 76.125 146.667 1.5
      vertex 76.125 146.667 65
    endloop
  endfacet
  facet normal 1 0 0
    outer loop
      vertex 76.125 146.667 1.5
      vertex 76.125 0 65
      vertex 76.125 0 1.5
    endloop
  endfacet
  facet normal -0 0 1
    outer loop
      vertex 74.625 146.667 65
      vertex 76.125 0 65
      vertex 76.125 146.667 65
    endloop
  endfacet
  facet normal 0 0 1
    outer loop
      vertex 76.125 0 65
      vertex 74.625 146.667 65
      vertex 74.625 0 65
    endloop
  endfacet
  facet normal -0 0 1
    outer loop
      vertex 0.1 146.667 65
      vertex 1.5 0 65
      vertex 1.5 146.667 65
    endloop
  endfacet
  facet normal 0 0 1
    outer loop
      vertex 1.5 0 65
      vertex 0.1 146.667 65
      vertex 0.1 0 65
    endloop
  endfacet
  facet normal -1 0 0
    outer loop
      vertex 74.625 0 1.5
      vertex 74.625 146.667 65
      vertex 74.625 146.667 1.5
    endloop
  endfacet
  facet normal -1 -0 0
    outer loop
      vertex 74.625 146.667 65
      vertex 74.625 0 1.5
      vertex 74.625 0 65
    endloop
  endfacet
  facet normal 1 -0 0
    outer loop
      vertex 135 0 1.5
      vertex 135 146.667 0.1
      vertex 135 146.667 1.5
    endloop
  endfacet
  facet normal 1 0 0
    outer loop
      vertex 135 146.667 0.1
      vertex 135 0 1.5
      vertex 135 0 0.1
    endloop
  endfacet
  facet normal 0 1 -0
    outer loop
      vertex 135 146.667 0.1
      vertex 76.125 146.667 1.5
      vertex 135 146.667 1.5
    endloop
  endfacet
  facet normal 0 1 0
    outer loop
      vertex 76.125 146.667 1.5
      vertex 135 146.667 0.1
      vertex 74.625 146.667 1.5
    endloop
  endfacet
  facet normal 0 1 0
    outer loop
      vertex 0.1 146.667 0.1
      vertex 74.625 146.667 1.5
      vertex 135 146.667 0.1
    endloop
  endfacet
  facet normal 0 1 -0
    outer loop
      vertex 76.125 146.667 1.5
      vertex 74.625 146.667 65
      vertex 76.125 146.667 65
    endloop
  endfacet
  facet normal 0 1 0
    outer loop
      vertex 74.625 146.667 65
      vertex 76.125 146.667 1.5
      vertex 74.625 146.667 1.5
    endloop
  endfacet
  facet normal 0 1 -0
    outer loop
      vertex 1.5 146.667 1.5
      vertex 0.1 146.667 65
      vertex 1.5 146.667 65
    endloop
  endfacet
  facet normal 0 1 0
    outer loop
      vertex 1.5 146.667 1.5
      vertex 0.1 146.667 0.1
      vertex 0.1 146.667 65
    endloop
  endfacet
  facet normal 0 1 0
    outer loop
      vertex 74.625 146.667 1.5
      vertex 0.1 146.667 0.1
      vertex 1.5 146.667 1.5
    endloop
  endfacet
  facet normal 0 -1 0
    outer loop
      vertex 0.1 0 65
      vertex 1.5 0 1.5
      vertex 1.5 0 65
    endloop
  endfacet
  facet normal 0 -1 0
    outer loop
      vertex 0.1 0 0.1
      vertex 74.625 0 1.5
      vertex 1.5 0 1.5
    endloop
  endfacet
  facet normal 0 -1 -0
    outer loop
      vertex 74.625 0 1.5
      vertex 0.1 0 0.1
      vertex 76.125 0 1.5
    endloop
  endfacet
  facet normal 0 -1 0
    outer loop
      vertex 0.1 0 0.1
      vertex 1.5 0 1.5
      vertex 0.1 0 65
    endloop
  endfacet
  facet normal 0 -1 -0
    outer loop
      vertex 76.125 0 1.5
      vertex 0.1 0 0.1
      vertex 135 0 0.1
    endloop
  endfacet
  facet normal 0 -1 0
    outer loop
      vertex 76.125 0 1.5
      vertex 135 0 0.1
      vertex 135 0 1.5
    endloop
  endfacet
  facet normal 0 -1 0
    outer loop
      vertex 74.625 0 1.5
      vertex 76.125 0 65
      vertex 74.625 0 65
    endloop
  endfacet
  facet normal 0 -1 -0
    outer loop
      vertex 76.125 0 65
      vertex 74.625 0 1.5
      vertex 76.125 0 1.5
    endloop
  endfacet
endsolid OpenSCAD_Model
