solid OpenSCAD_Model
  facet normal 0.707107 0 -0.707107
    outer loop
      vertex 1.32304 0 5
      vertex 93.6209 146.667 97.2979
      vertex 93.6209 0 97.2979
    endloop
  endfacet
  facet normal 0.707107 0 -0.707107
    outer loop
      vertex 93.6209 146.667 97.2979
      vertex 1.32304 0 5
      vertex 1.32304 146.667 5
    endloop
  endfacet
  facet normal -0.707107 0 -0.707107
    outer loop
      vertex -45.8912 0 46.0326
      vertex -4.85858 146.667 5
      vertex -4.85858 0 5
    endloop
  endfacet
  facet normal -0.707107 0 -0.707107
    outer loop
      vertex -4.85858 146.667 5
      vertex -45.8912 0 46.0326
      vertex -45.8912 146.667 46.0326
    endloop
  endfacet
  facet normal -0.707107 0 0.707107
    outer loop
      vertex 0 0 7.07107
      vertex 48.6136 146.667 55.6847
      vertex 0 146.667 7.07107
    endloop
  endfacet
  facet normal -0.707107 0 0.707107
    outer loop
      vertex 48.6136 146.667 55.6847
      vertex 0 0 7.07107
      vertex 48.6136 0 55.6847
    endloop
  endfacet
  facet normal -0.707106 0 0.707108
    outer loop
      vertex 52.1491 0 59.2202
      vertex 91.9239 146.667 98.9949
      vertex 52.1491 146.667 59.2202
    endloop
  endfacet
  facet normal -0.707106 0 0.707108
    outer loop
      vertex 91.9239 146.667 98.9949
      vertex 52.1491 0 59.2202
      vertex 91.9239 0 98.9949
    endloop
  endfacet
  facet normal 0.707107 -0 0.707107
    outer loop
      vertex -42.4264 0 49.4975
      vertex 0 146.667 7.07107
      vertex -42.4264 146.667 49.4975
    endloop
  endfacet
  facet normal 0.707107 0 0.707107
    outer loop
      vertex 0 146.667 7.07107
      vertex -42.4264 0 49.4975
      vertex 0 0 7.07107
    endloop
  endfacet
  facet normal 0.707108 -0 0.707106
    outer loop
      vertex 13.2583 0 98.1111
      vertex 52.1491 146.667 59.2202
      vertex 13.2583 146.667 98.1111
    endloop
  endfacet
  facet normal 0.707108 0 0.707106
    outer loop
      vertex 52.1491 146.667 59.2202
      vertex 13.2583 0 98.1111
      vertex 52.1491 0 59.2202
    endloop
  endfacet
  facet normal -0.707106 0 -0.707108
    outer loop
      vertex 48.6136 0 55.6847
      vertex 9.72272 146.667 94.5755
      vertex 48.6136 146.667 55.6847
    endloop
  endfacet
  facet normal -0.707106 -0 -0.707108
    outer loop
      vertex 9.72272 146.667 94.5755
      vertex 48.6136 0 55.6847
      vertex 9.72272 0 94.5755
    endloop
  endfacet
  facet normal -0.544574 0 0.838713
    outer loop
      vertex 9.91718 146.667 98.2862
      vertex 10.3555 0 98.5708
      vertex 10.3555 146.667 98.5708
    endloop
  endfacet
  facet normal -0.544574 0 0.838713
    outer loop
      vertex 10.3555 0 98.5708
      vertex 9.91718 146.667 98.2862
      vertex 9.91718 0 98.2862
    endloop
  endfacet
  facet normal 0.0524183 0 0.998625
    outer loop
      vertex 11.3596 146.667 98.8399
      vertex 11.8816 0 98.8125
      vertex 11.8816 146.667 98.8125
    endloop
  endfacet
  facet normal 0.0524183 0 0.998625
    outer loop
      vertex 11.8816 0 98.8125
      vertex 11.3596 146.667 98.8399
      vertex 11.3596 0 98.8399
    endloop
  endfacet
  facet normal -0.838658 0 0.544659
    outer loop
      vertex 9.26297 0 97.4783
      vertex 9.54762 146.667 97.9166
      vertex 9.26297 146.667 97.4783
    endloop
  endfacet
  facet normal -0.838658 0 0.544659
    outer loop
      vertex 9.54762 146.667 97.9166
      vertex 9.26297 0 97.4783
      vertex 9.54762 0 97.9166
    endloop
  endfacet
  facet normal -0.707145 0 0.707069
    outer loop
      vertex 9.54762 0 97.9166
      vertex 9.91718 146.667 98.2862
      vertex 9.54762 146.667 97.9166
    endloop
  endfacet
  facet normal -0.707145 0 0.707069
    outer loop
      vertex 9.91718 146.667 98.2862
      vertex 9.54762 0 97.9166
      vertex 9.91718 0 98.2862
    endloop
  endfacet
  facet normal -0.99863 0 -0.0523329
    outer loop
      vertex 9.02126 0 95.9522
      vertex 8.99391 146.667 96.4741
      vertex 9.02126 146.667 95.9522
    endloop
  endfacet
  facet normal -0.99863 -0 -0.0523329
    outer loop
      vertex 8.99391 146.667 96.4741
      vertex 9.02126 0 95.9522
      vertex 8.99391 0 96.4741
    endloop
  endfacet
  facet normal 0.629281 0 0.777178
    outer loop
      vertex 12.8521 146.667 98.44
      vertex 13.2583 0 98.1111
      vertex 13.2583 146.667 98.1111
    endloop
  endfacet
  facet normal 0.629281 0 0.777178
    outer loop
      vertex 13.2583 0 98.1111
      vertex 12.8521 146.667 98.44
      vertex 12.8521 0 98.44
    endloop
  endfacet
  facet normal -0.156513 0 0.987676
    outer loop
      vertex 10.8434 146.667 98.7581
      vertex 11.3596 0 98.8399
      vertex 11.3596 146.667 98.8399
    endloop
  endfacet
  facet normal -0.156513 0 0.987676
    outer loop
      vertex 11.3596 0 98.8399
      vertex 10.8434 146.667 98.7581
      vertex 10.8434 0 98.7581
    endloop
  endfacet
  facet normal 0.258889 0 0.965907
    outer loop
      vertex 11.8816 146.667 98.8125
      vertex 12.3864 0 98.6772
      vertex 12.3864 146.667 98.6772
    endloop
  endfacet
  facet normal 0.258889 0 0.965907
    outer loop
      vertex 12.3864 0 98.6772
      vertex 11.8816 146.667 98.8125
      vertex 11.8816 0 98.8125
    endloop
  endfacet
  facet normal -0.987688 0 0.156438
    outer loop
      vertex 8.99391 0 96.4741
      vertex 9.07567 146.667 96.9903
      vertex 8.99391 146.667 96.4741
    endloop
  endfacet
  facet normal -0.987688 0 0.156438
    outer loop
      vertex 9.07567 146.667 96.9903
      vertex 8.99391 0 96.4741
      vertex 9.07567 0 96.9903
    endloop
  endfacet
  facet normal -0.933597 0 0.358325
    outer loop
      vertex 9.07567 0 96.9903
      vertex 9.26297 146.667 97.4783
      vertex 9.07567 146.667 96.9903
    endloop
  endfacet
  facet normal -0.933597 0 0.358325
    outer loop
      vertex 9.26297 146.667 97.4783
      vertex 9.07567 0 96.9903
      vertex 9.26297 0 97.4783
    endloop
  endfacet
  facet normal -0.358389 0 0.933572
    outer loop
      vertex 10.3555 146.667 98.5708
      vertex 10.8434 0 98.7581
      vertex 10.8434 146.667 98.7581
    endloop
  endfacet
  facet normal -0.358389 0 0.933572
    outer loop
      vertex 10.8434 0 98.7581
      vertex 10.3555 146.667 98.5708
      vertex 10.3555 0 98.5708
    endloop
  endfacet
  facet normal 0.45386 0 0.891073
    outer loop
      vertex 12.3864 146.667 98.6772
      vertex 12.8521 0 98.44
      vertex 12.8521 146.667 98.44
    endloop
  endfacet
  facet normal 0.45386 0 0.891073
    outer loop
      vertex 12.8521 0 98.44
      vertex 12.3864 146.667 98.6772
      vertex 12.3864 0 98.6772
    endloop
  endfacet
  facet normal -0.891011 0 -0.453981
    outer loop
      vertex 9.39381 0 94.9817
      vertex 9.15653 146.667 95.4474
      vertex 9.39381 146.667 94.9817
    endloop
  endfacet
  facet normal -0.891011 -0 -0.453981
    outer loop
      vertex 9.15653 146.667 95.4474
      vertex 9.39381 0 94.9817
      vertex 9.15653 0 95.4474
    endloop
  endfacet
  facet normal -0.965921 0 -0.258836
    outer loop
      vertex 9.15653 0 95.4474
      vertex 9.02126 146.667 95.9522
      vertex 9.15653 146.667 95.4474
    endloop
  endfacet
  facet normal -0.965921 -0 -0.258836
    outer loop
      vertex 9.02126 146.667 95.9522
      vertex 9.15653 0 95.4474
      vertex 9.02126 0 95.9522
    endloop
  endfacet
  facet normal -0.777169 0 -0.629292
    outer loop
      vertex 9.72272 0 94.5755
      vertex 9.39381 146.667 94.9817
      vertex 9.72272 146.667 94.5755
    endloop
  endfacet
  facet normal -0.777169 -0 -0.629292
    outer loop
      vertex 9.39381 146.667 94.9817
      vertex 9.72272 0 94.5755
      vertex 9.39381 0 94.9817
    endloop
  endfacet
  facet normal 0 0 -1
    outer loop
      vertex -4.85858 0 5
      vertex 1.32304 146.667 5
      vertex 1.32304 0 5
    endloop
  endfacet
  facet normal -0 0 -1
    outer loop
      vertex 1.32304 146.667 5
      vertex -4.85858 0 5
      vertex -4.85858 146.667 5
    endloop
  endfacet
  facet normal 0.707107 -0 0.707107
    outer loop
      vertex 91.9239 0 98.9949
      vertex 93.6209 146.667 97.2979
      vertex 91.9239 146.667 98.9949
    endloop
  endfacet
  facet normal 0.707107 0 0.707107
    outer loop
      vertex 93.6209 146.667 97.2979
      vertex 91.9239 0 98.9949
      vertex 93.6209 0 97.2979
    endloop
  endfacet
  facet normal -0.707117 0 0.707097
    outer loop
      vertex -45.8912 0 46.0326
      vertex -42.4264 146.667 49.4975
      vertex -45.8912 146.667 46.0326
    endloop
  endfacet
  facet normal -0.707117 0 0.707097
    outer loop
      vertex -42.4264 146.667 49.4975
      vertex -45.8912 0 46.0326
      vertex -42.4264 0 49.4975
    endloop
  endfacet
  facet normal 0 1 0
    outer loop
      vertex 93.6209 146.667 97.2979
      vertex 52.1491 146.667 59.2202
      vertex 91.9239 146.667 98.9949
    endloop
  endfacet
  facet normal 0 1 0
    outer loop
      vertex 93.6209 146.667 97.2979
      vertex 48.6136 146.667 55.6847
      vertex 52.1491 146.667 59.2202
    endloop
  endfacet
  facet normal 0 1 0
    outer loop
      vertex 1.32304 146.667 5
      vertex 48.6136 146.667 55.6847
      vertex 93.6209 146.667 97.2979
    endloop
  endfacet
  facet normal 0 1 0
    outer loop
      vertex 48.6136 146.667 55.6847
      vertex 1.32304 146.667 5
      vertex 0 146.667 7.07107
    endloop
  endfacet
  facet normal 0 1 0
    outer loop
      vertex 11.8816 146.667 98.8125
      vertex 10.8434 146.667 98.7581
      vertex 11.3596 146.667 98.8399
    endloop
  endfacet
  facet normal 0 1 0
    outer loop
      vertex 12.3864 146.667 98.6772
      vertex 10.8434 146.667 98.7581
      vertex 11.8816 146.667 98.8125
    endloop
  endfacet
  facet normal 0 1 0
    outer loop
      vertex 12.3864 146.667 98.6772
      vertex 10.3555 146.667 98.5708
      vertex 10.8434 146.667 98.7581
    endloop
  endfacet
  facet normal 0 1 0
    outer loop
      vertex 12.8521 146.667 98.44
      vertex 10.3555 146.667 98.5708
      vertex 12.3864 146.667 98.6772
    endloop
  endfacet
  facet normal 0 1 0
    outer loop
      vertex 12.8521 146.667 98.44
      vertex 9.91718 146.667 98.2862
      vertex 10.3555 146.667 98.5708
    endloop
  endfacet
  facet normal 0 1 0
    outer loop
      vertex 13.2583 146.667 98.1111
      vertex 9.91718 146.667 98.2862
      vertex 12.8521 146.667 98.44
    endloop
  endfacet
  facet normal 0 1 0
    outer loop
      vertex 13.2583 146.667 98.1111
      vertex 9.54762 146.667 97.9166
      vertex 9.91718 146.667 98.2862
    endloop
  endfacet
  facet normal 0 1 0
    outer loop
      vertex 13.2583 146.667 98.1111
      vertex 9.26297 146.667 97.4783
      vertex 9.54762 146.667 97.9166
    endloop
  endfacet
  facet normal 0 1 0
    outer loop
      vertex 13.2583 146.667 98.1111
      vertex 9.07567 146.667 96.9903
      vertex 9.26297 146.667 97.4783
    endloop
  endfacet
  facet normal 0 1 0
    outer loop
      vertex 13.2583 146.667 98.1111
      vertex 8.99391 146.667 96.4741
      vertex 9.07567 146.667 96.9903
    endloop
  endfacet
  facet normal 0 1 0
    outer loop
      vertex 13.2583 146.667 98.1111
      vertex 9.02126 146.667 95.9522
      vertex 8.99391 146.667 96.4741
    endloop
  endfacet
  facet normal 0 1 0
    outer loop
      vertex 13.2583 146.667 98.1111
      vertex 9.15653 146.667 95.4474
      vertex 9.02126 146.667 95.9522
    endloop
  endfacet
  facet normal 0 1 0
    outer loop
      vertex 13.2583 146.667 98.1111
      vertex 9.39381 146.667 94.9817
      vertex 9.15653 146.667 95.4474
    endloop
  endfacet
  facet normal 0 1 0
    outer loop
      vertex 13.2583 146.667 98.1111
      vertex 9.72272 146.667 94.5755
      vertex 9.39381 146.667 94.9817
    endloop
  endfacet
  facet normal 0 1 0
    outer loop
      vertex 52.1491 146.667 59.2202
      vertex 9.72272 146.667 94.5755
      vertex 13.2583 146.667 98.1111
    endloop
  endfacet
  facet normal 0 1 0
    outer loop
      vertex 9.72272 146.667 94.5755
      vertex 52.1491 146.667 59.2202
      vertex 48.6136 146.667 55.6847
    endloop
  endfacet
  facet normal 0 1 -0
    outer loop
      vertex -4.85858 146.667 5
      vertex -42.4264 146.667 49.4975
      vertex 0 146.667 7.07107
    endloop
  endfacet
  facet normal 0 1 0
    outer loop
      vertex -4.85858 146.667 5
      vertex 0 146.667 7.07107
      vertex 1.32304 146.667 5
    endloop
  endfacet
  facet normal 0 1 0
    outer loop
      vertex -42.4264 146.667 49.4975
      vertex -4.85858 146.667 5
      vertex -45.8912 146.667 46.0326
    endloop
  endfacet
  facet normal 0 -1 0
    outer loop
      vertex -4.85858 0 5
      vertex -42.4264 0 49.4975
      vertex -45.8912 0 46.0326
    endloop
  endfacet
  facet normal 0 -1 0
    outer loop
      vertex -42.4264 0 49.4975
      vertex -4.85858 0 5
      vertex 0 0 7.07107
    endloop
  endfacet
  facet normal 0 -1 0
    outer loop
      vertex 10.8434 0 98.7581
      vertex 11.8816 0 98.8125
      vertex 11.3596 0 98.8399
    endloop
  endfacet
  facet normal 0 -1 0
    outer loop
      vertex 10.8434 0 98.7581
      vertex 12.3864 0 98.6772
      vertex 11.8816 0 98.8125
    endloop
  endfacet
  facet normal 0 -1 0
    outer loop
      vertex 10.3555 0 98.5708
      vertex 12.3864 0 98.6772
      vertex 10.8434 0 98.7581
    endloop
  endfacet
  facet normal 0 -1 0
    outer loop
      vertex 10.3555 0 98.5708
      vertex 12.8521 0 98.44
      vertex 12.3864 0 98.6772
    endloop
  endfacet
  facet normal 0 -1 0
    outer loop
      vertex 9.91718 0 98.2862
      vertex 12.8521 0 98.44
      vertex 10.3555 0 98.5708
    endloop
  endfacet
  facet normal 0 -1 0
    outer loop
      vertex 9.91718 0 98.2862
      vertex 13.2583 0 98.1111
      vertex 12.8521 0 98.44
    endloop
  endfacet
  facet normal 0 -1 0
    outer loop
      vertex 9.54762 0 97.9166
      vertex 13.2583 0 98.1111
      vertex 9.91718 0 98.2862
    endloop
  endfacet
  facet normal 0 -1 0
    outer loop
      vertex 9.26297 0 97.4783
      vertex 13.2583 0 98.1111
      vertex 9.54762 0 97.9166
    endloop
  endfacet
  facet normal 0 -1 0
    outer loop
      vertex 9.07567 0 96.9903
      vertex 13.2583 0 98.1111
      vertex 9.26297 0 97.4783
    endloop
  endfacet
  facet normal 0 -1 0
    outer loop
      vertex 8.99391 0 96.4741
      vertex 13.2583 0 98.1111
      vertex 9.07567 0 96.9903
    endloop
  endfacet
  facet normal 0 -1 0
    outer loop
      vertex 9.02126 0 95.9522
      vertex 13.2583 0 98.1111
      vertex 8.99391 0 96.4741
    endloop
  endfacet
  facet normal 0 -1 0
    outer loop
      vertex 9.15653 0 95.4474
      vertex 13.2583 0 98.1111
      vertex 9.02126 0 95.9522
    endloop
  endfacet
  facet normal 0 -1 0
    outer loop
      vertex 9.39381 0 94.9817
      vertex 13.2583 0 98.1111
      vertex 9.15653 0 95.4474
    endloop
  endfacet
  facet normal 0 -1 0
    outer loop
      vertex 9.72272 0 94.5755
      vertex 13.2583 0 98.1111
      vertex 9.39381 0 94.9817
    endloop
  endfacet
  facet normal 0 -1 0
    outer loop
      vertex 9.72272 0 94.5755
      vertex 52.1491 0 59.2202
      vertex 13.2583 0 98.1111
    endloop
  endfacet
  facet normal -0 -1 0
    outer loop
      vertex 52.1491 0 59.2202
      vertex 9.72272 0 94.5755
      vertex 48.6136 0 55.6847
    endloop
  endfacet
  facet normal 0 -1 0
    outer loop
      vertex 52.1491 0 59.2202
      vertex 93.6209 0 97.2979
      vertex 91.9239 0 98.9949
    endloop
  endfacet
  facet normal 0 -1 0
    outer loop
      vertex 48.6136 0 55.6847
      vertex 93.6209 0 97.2979
      vertex 52.1491 0 59.2202
    endloop
  endfacet
  facet normal 0 -1 0
    outer loop
      vertex 1.32304 0 5
      vertex 48.6136 0 55.6847
      vertex 0 0 7.07107
    endloop
  endfacet
  facet normal 0 -1 -0
    outer loop
      vertex 48.6136 0 55.6847
      vertex 1.32304 0 5
      vertex 93.6209 0 97.2979
    endloop
  endfacet
  facet normal 0 -1 0
    outer loop
      vertex 1.32304 0 5
      vertex 0 0 7.07107
      vertex -4.85858 0 5
    endloop
  endfacet
endsolid OpenSCAD_Model
