solid OpenSCAD_Model
  facet normal 0.707107 0 -0.707107
    outer loop
      vertex 95.3887 0 95.5301
      vertex 4.85858 146.667 5
      vertex 95.3887 146.667 95.5301
    endloop
  endfacet
  facet normal 0.707107 0 -0.707107
    outer loop
      vertex 4.85858 146.667 5
      vertex 95.3887 0 95.5301
      vertex 4.85858 0 5
    endloop
  endfacet
  facet normal -0.707107 0 -0.707107
    outer loop
      vertex -45.8912 0 46.0326
      vertex -4.85858 146.667 5
      vertex -4.85858 0 5
    endloop
  endfacet
  facet normal -0.707107 0 -0.707107
    outer loop
      vertex -4.85858 146.667 5
      vertex -45.8912 0 46.0326
      vertex -45.8912 146.667 46.0326
    endloop
  endfacet
  facet normal -0.707106 0 0.707108
    outer loop
      vertex 52.1491 44.1667 59.2202
      vertex 91.9239 141.667 98.9949
      vertex 52.1491 141.667 59.2202
    endloop
  endfacet
  facet normal -0.707106 0 0.707108
    outer loop
      vertex 91.9239 141.667 98.9949
      vertex 52.1491 44.1667 59.2202
      vertex 91.9239 44.1667 98.9949
    endloop
  endfacet
  facet normal -0.707107 0 0.707107
    outer loop
      vertex 0 0 7.07107
      vertex 48.6136 141.667 55.6847
      vertex 0 141.667 7.07107
    endloop
  endfacet
  facet normal -0.707107 0 0.707107
    outer loop
      vertex 48.6136 141.667 55.6847
      vertex 0 0 7.07107
      vertex 48.6136 0 55.6847
    endloop
  endfacet
  facet normal -0.707106 0 0.707108
    outer loop
      vertex 52.1491 0 59.2202
      vertex 91.9239 39.1667 98.9949
      vertex 52.1491 39.1667 59.2202
    endloop
  endfacet
  facet normal -0.707106 0 0.707108
    outer loop
      vertex 91.9239 39.1667 98.9949
      vertex 52.1491 0 59.2202
      vertex 91.9239 0 98.9949
    endloop
  endfacet
  facet normal 0.707107 -0 0.707107
    outer loop
      vertex -42.4264 0 49.4975
      vertex 0 141.667 7.07107
      vertex -42.4264 141.667 49.4975
    endloop
  endfacet
  facet normal 0.707107 0 0.707107
    outer loop
      vertex 0 141.667 7.07107
      vertex -42.4264 0 49.4975
      vertex 0 0 7.07107
    endloop
  endfacet
  facet normal 0 -1 0
    outer loop
      vertex -42.4264 141.667 49.4975
      vertex 48.6136 141.667 55.6847
      vertex 6.18718 141.667 98.1111
    endloop
  endfacet
  facet normal 0 -1 0
    outer loop
      vertex 48.6136 141.667 55.6847
      vertex -42.4264 141.667 49.4975
      vertex 0 141.667 7.07107
    endloop
  endfacet
  facet normal 0 -1 0
    outer loop
      vertex 9.72272 141.667 101.647
      vertex 91.9239 141.667 98.9949
      vertex 49.4975 141.667 141.421
    endloop
  endfacet
  facet normal -0 -1 0
    outer loop
      vertex 91.9239 141.667 98.9949
      vertex 9.72272 141.667 101.647
      vertex 52.1491 141.667 59.2202
    endloop
  endfacet
  facet normal 0.70711 -0 0.707103
    outer loop
      vertex 9.72272 44.1667 101.647
      vertex 52.1491 141.667 59.2202
      vertex 9.72272 141.667 101.647
    endloop
  endfacet
  facet normal 0.70711 0 0.707103
    outer loop
      vertex 52.1491 141.667 59.2202
      vertex 9.72272 44.1667 101.647
      vertex 52.1491 44.1667 59.2202
    endloop
  endfacet
  facet normal 0.70711 -0 0.707103
    outer loop
      vertex 9.72272 0 101.647
      vertex 52.1491 39.1667 59.2202
      vertex 9.72272 39.1667 101.647
    endloop
  endfacet
  facet normal 0.70711 0 0.707103
    outer loop
      vertex 52.1491 39.1667 59.2202
      vertex 9.72272 0 101.647
      vertex 52.1491 0 59.2202
    endloop
  endfacet
  facet normal -0.707143 0 0.707071
    outer loop
      vertex 6.18718 141.667 98.1111
      vertex 9.72272 44.1667 101.647
      vertex 9.72272 141.667 101.647
    endloop
  endfacet
  facet normal -0.7071 0 0.707114
    outer loop
      vertex 9.72272 44.1667 101.647
      vertex 9.72272 39.1667 101.647
      vertex 49.4975 44.1667 141.421
    endloop
  endfacet
  facet normal -0.707143 0 0.707071
    outer loop
      vertex 6.18718 0 98.1111
      vertex 9.72272 44.1667 101.647
      vertex 6.18718 141.667 98.1111
    endloop
  endfacet
  facet normal -0.707143 0 0.707071
    outer loop
      vertex 9.72272 44.1667 101.647
      vertex 6.18718 0 98.1111
      vertex 9.72272 39.1667 101.647
    endloop
  endfacet
  facet normal -0.707143 0 0.707071
    outer loop
      vertex 9.72272 39.1667 101.647
      vertex 6.18718 0 98.1111
      vertex 9.72272 0 101.647
    endloop
  endfacet
  facet normal -0.707107 1.39405e-05 0.707107
    outer loop
      vertex 6.18718 141.667 98.1111
      vertex -45.8912 146.667 46.0326
      vertex -42.4264 141.667 49.4975
    endloop
  endfacet
  facet normal -0.707117 0 0.707097
    outer loop
      vertex -45.8912 0 46.0326
      vertex -42.4264 141.667 49.4975
      vertex -45.8912 146.667 46.0326
    endloop
  endfacet
  facet normal -0.707117 0 0.707097
    outer loop
      vertex -42.4264 141.667 49.4975
      vertex -45.8912 0 46.0326
      vertex -42.4264 0 49.4975
    endloop
  endfacet
  facet normal -0.707106 4.01337e-05 0.707108
    outer loop
      vertex -45.8912 146.667 46.0326
      vertex 6.18718 141.667 98.1111
      vertex 49.4975 146.667 141.421
    endloop
  endfacet
  facet normal -0.707143 0.00068303 0.707071
    outer loop
      vertex 9.72272 141.667 101.647
      vertex 49.4975 146.667 141.421
      vertex 6.18718 141.667 98.1111
    endloop
  endfacet
  facet normal -0.7071 0 0.707114
    outer loop
      vertex 49.4975 146.667 141.421
      vertex 9.72272 141.667 101.647
      vertex 49.4975 141.667 141.421
    endloop
  endfacet
  facet normal -0.7071 0 0.707114
    outer loop
      vertex 49.4975 44.1667 141.421
      vertex 9.72272 39.1667 101.647
      vertex 49.4975 39.1667 141.421
    endloop
  endfacet
  facet normal -0.707107 0 -0.707107
    outer loop
      vertex 48.6136 0 55.6847
      vertex 6.18718 141.667 98.1111
      vertex 48.6136 141.667 55.6847
    endloop
  endfacet
  facet normal -0.707107 -0 -0.707107
    outer loop
      vertex 6.18718 141.667 98.1111
      vertex 48.6136 0 55.6847
      vertex 6.18718 0 98.1111
    endloop
  endfacet
  facet normal 0 -1 0
    outer loop
      vertex 9.72272 39.1667 101.647
      vertex 91.9239 39.1667 98.9949
      vertex 49.4975 39.1667 141.421
    endloop
  endfacet
  facet normal -0 -1 0
    outer loop
      vertex 91.9239 39.1667 98.9949
      vertex 9.72272 39.1667 101.647
      vertex 52.1491 39.1667 59.2202
    endloop
  endfacet
  facet normal 0 1 0
    outer loop
      vertex 91.9239 44.1667 98.9949
      vertex 9.72272 44.1667 101.647
      vertex 49.4975 44.1667 141.421
    endloop
  endfacet
  facet normal 0 1 0
    outer loop
      vertex 9.72272 44.1667 101.647
      vertex 91.9239 44.1667 98.9949
      vertex 52.1491 44.1667 59.2202
    endloop
  endfacet
  facet normal 0 0 -1
    outer loop
      vertex -4.85858 0 5
      vertex 4.85858 146.667 5
      vertex 4.85858 0 5
    endloop
  endfacet
  facet normal -0 0 -1
    outer loop
      vertex 4.85858 146.667 5
      vertex -4.85858 0 5
      vertex -4.85858 146.667 5
    endloop
  endfacet
  facet normal 0.707104 0 0.707109
    outer loop
      vertex 49.4975 44.1667 141.421
      vertex 49.4975 39.1667 141.421
      vertex 91.9239 44.1667 98.9949
    endloop
  endfacet
  facet normal 0.707104 0 0.707109
    outer loop
      vertex 91.9239 141.667 98.9949
      vertex 49.4975 146.667 141.421
      vertex 49.4975 141.667 141.421
    endloop
  endfacet
  facet normal 0.707104 3.20322e-06 0.707109
    outer loop
      vertex 49.4975 146.667 141.421
      vertex 91.9239 141.667 98.9949
      vertex 95.3887 146.667 95.5301
    endloop
  endfacet
  facet normal 0.707107 -0 0.707107
    outer loop
      vertex 91.9239 44.1667 98.9949
      vertex 95.3887 146.667 95.5301
      vertex 91.9239 141.667 98.9949
    endloop
  endfacet
  facet normal 0.707104 -0 0.707109
    outer loop
      vertex 91.9239 39.1667 98.9949
      vertex 91.9239 44.1667 98.9949
      vertex 49.4975 39.1667 141.421
    endloop
  endfacet
  facet normal 0.707107 0 0.707107
    outer loop
      vertex 95.3887 0 95.5301
      vertex 91.9239 44.1667 98.9949
      vertex 91.9239 39.1667 98.9949
    endloop
  endfacet
  facet normal 0.707107 0 0.707107
    outer loop
      vertex 95.3887 0 95.5301
      vertex 91.9239 39.1667 98.9949
      vertex 91.9239 0 98.9949
    endloop
  endfacet
  facet normal 0.707107 0 0.707107
    outer loop
      vertex 91.9239 44.1667 98.9949
      vertex 95.3887 0 95.5301
      vertex 95.3887 146.667 95.5301
    endloop
  endfacet
  facet normal 0 1 0
    outer loop
      vertex 4.85858 146.667 5
      vertex 49.4975 146.667 141.421
      vertex 95.3887 146.667 95.5301
    endloop
  endfacet
  facet normal 0 1 0
    outer loop
      vertex 49.4975 146.667 141.421
      vertex 4.85858 146.667 5
      vertex -45.8912 146.667 46.0326
    endloop
  endfacet
  facet normal 0 1 0
    outer loop
      vertex -45.8912 146.667 46.0326
      vertex 4.85858 146.667 5
      vertex -4.85858 146.667 5
    endloop
  endfacet
  facet normal 0 -1 0
    outer loop
      vertex -4.85858 0 5
      vertex -42.4264 0 49.4975
      vertex -45.8912 0 46.0326
    endloop
  endfacet
  facet normal 0 -1 0
    outer loop
      vertex -42.4264 0 49.4975
      vertex -4.85858 0 5
      vertex 0 0 7.07107
    endloop
  endfacet
  facet normal 0 -1 0
    outer loop
      vertex 6.18718 0 98.1111
      vertex 52.1491 0 59.2202
      vertex 9.72272 0 101.647
    endloop
  endfacet
  facet normal -0 -1 0
    outer loop
      vertex 52.1491 0 59.2202
      vertex 6.18718 0 98.1111
      vertex 48.6136 0 55.6847
    endloop
  endfacet
  facet normal 0 -1 0
    outer loop
      vertex 52.1491 0 59.2202
      vertex 95.3887 0 95.5301
      vertex 91.9239 0 98.9949
    endloop
  endfacet
  facet normal 0 -1 0
    outer loop
      vertex 48.6136 0 55.6847
      vertex 95.3887 0 95.5301
      vertex 52.1491 0 59.2202
    endloop
  endfacet
  facet normal 0 -1 0
    outer loop
      vertex 4.85858 0 5
      vertex 48.6136 0 55.6847
      vertex 0 0 7.07107
    endloop
  endfacet
  facet normal 0 -1 -0
    outer loop
      vertex 48.6136 0 55.6847
      vertex 4.85858 0 5
      vertex 95.3887 0 95.5301
    endloop
  endfacet
  facet normal 0 -1 0
    outer loop
      vertex 4.85858 0 5
      vertex 0 0 7.07107
      vertex -4.85858 0 5
    endloop
  endfacet
endsolid OpenSCAD_Model
