solid OpenSCAD_Model
  facet normal 1 -0 0
    outer loop
      vertex 165.1 0 65
      vertex 165.1 146.667 0.1
      vertex 165.1 146.667 65
    endloop
  endfacet
  facet normal 1 0 0
    outer loop
      vertex 165.1 146.667 0.1
      vertex 165.1 0 65
      vertex 165.1 0 0.1
    endloop
  endfacet
  facet normal 0 0 -1
    outer loop
      vertex 0 0 0.1
      vertex 165.1 146.667 0.1
      vertex 165.1 0 0.1
    endloop
  endfacet
  facet normal -0 0 -1
    outer loop
      vertex 165.1 146.667 0.1
      vertex 0 0 0.1
      vertex 0 146.667 0.1
    endloop
  endfacet
  facet normal -1 0 0
    outer loop
      vertex 163.5 38.9167 1.5
      vertex 163.5 145.167 65
      vertex 163.5 145.167 1.5
    endloop
  endfacet
  facet normal -1 -0 0
    outer loop
      vertex 163.5 145.167 65
      vertex 163.5 38.9167 1.5
      vertex 163.5 38.9167 65
    endloop
  endfacet
  facet normal -1 0 0
    outer loop
      vertex 163.5 0 1.5
      vertex 163.5 37.4167 65
      vertex 163.5 37.4167 1.5
    endloop
  endfacet
  facet normal -1 -0 0
    outer loop
      vertex 163.5 37.4167 65
      vertex 163.5 0 1.5
      vertex 163.5 0 65
    endloop
  endfacet
  facet normal -0 0 1
    outer loop
      vertex 0 145.167 1.5
      vertex 163.5 38.9167 1.5
      vertex 163.5 145.167 1.5
    endloop
  endfacet
  facet normal 0 0 1
    outer loop
      vertex 163.5 38.9167 1.5
      vertex 0 145.167 1.5
      vertex 0 38.9167 1.5
    endloop
  endfacet
  facet normal -0 0 1
    outer loop
      vertex 90.375 37.4167 1.5
      vertex 163.5 0 1.5
      vertex 163.5 37.4167 1.5
    endloop
  endfacet
  facet normal 0 0 1
    outer loop
      vertex 163.5 0 1.5
      vertex 90.375 37.4167 1.5
      vertex 90.375 0 1.5
    endloop
  endfacet
  facet normal -0 0 1
    outer loop
      vertex 15.75 37.4167 1.5
      vertex 88.875 0 1.5
      vertex 88.875 37.4167 1.5
    endloop
  endfacet
  facet normal 0 0 1
    outer loop
      vertex 88.875 0 1.5
      vertex 15.75 37.4167 1.5
      vertex 15.75 0 1.5
    endloop
  endfacet
  facet normal -0 0 1
    outer loop
      vertex 0 37.4167 1.5
      vertex 14.25 0 1.5
      vertex 14.25 37.4167 1.5
    endloop
  endfacet
  facet normal 0 0 1
    outer loop
      vertex 14.25 0 1.5
      vertex 0 37.4167 1.5
      vertex 0 0 1.5
    endloop
  endfacet
  facet normal 0 -1 0
    outer loop
      vertex 0 145.167 1.5
      vertex 163.5 145.167 65
      vertex 0 145.167 65
    endloop
  endfacet
  facet normal 0 -1 -0
    outer loop
      vertex 163.5 145.167 65
      vertex 0 145.167 1.5
      vertex 163.5 145.167 1.5
    endloop
  endfacet
  facet normal 0 0 1
    outer loop
      vertex 163.5 38.9167 65
      vertex 90.375 37.4167 65
      vertex 163.5 37.4167 65
    endloop
  endfacet
  facet normal 0 0 1
    outer loop
      vertex 90.375 37.4167 65
      vertex 88.875 37.4167 65
      vertex 90.375 0 65
    endloop
  endfacet
  facet normal 0 0 1
    outer loop
      vertex 163.5 38.9167 65
      vertex 88.875 37.4167 65
      vertex 90.375 37.4167 65
    endloop
  endfacet
  facet normal -0 0 1
    outer loop
      vertex 0 38.9167 65
      vertex 88.875 37.4167 65
      vertex 163.5 38.9167 65
    endloop
  endfacet
  facet normal 0 0 1
    outer loop
      vertex 15.75 37.4167 65
      vertex 14.25 37.4167 65
      vertex 15.75 0 65
    endloop
  endfacet
  facet normal 0 0 1
    outer loop
      vertex 88.875 37.4167 65
      vertex 0 38.9167 65
      vertex 15.75 37.4167 65
    endloop
  endfacet
  facet normal 0 0 1
    outer loop
      vertex 15.75 37.4167 65
      vertex 0 38.9167 65
      vertex 14.25 37.4167 65
    endloop
  endfacet
  facet normal 0 0 1
    outer loop
      vertex 14.25 37.4167 65
      vertex 0 38.9167 65
      vertex 0 37.4167 65
    endloop
  endfacet
  facet normal 0 0 1
    outer loop
      vertex 163.5 38.9167 65
      vertex 165.1 146.667 65
      vertex 163.5 145.167 65
    endloop
  endfacet
  facet normal -0 0 1
    outer loop
      vertex 0 146.667 65
      vertex 163.5 145.167 65
      vertex 165.1 146.667 65
    endloop
  endfacet
  facet normal 0 0 1
    outer loop
      vertex 163.5 145.167 65
      vertex 0 146.667 65
      vertex 0 145.167 65
    endloop
  endfacet
  facet normal 0 0 1
    outer loop
      vertex 165.1 146.667 65
      vertex 163.5 38.9167 65
      vertex 165.1 0 65
    endloop
  endfacet
  facet normal -0 0 1
    outer loop
      vertex 163.5 37.4167 65
      vertex 165.1 0 65
      vertex 163.5 38.9167 65
    endloop
  endfacet
  facet normal 0 0 1
    outer loop
      vertex 165.1 0 65
      vertex 163.5 37.4167 65
      vertex 163.5 0 65
    endloop
  endfacet
  facet normal 0 0 1
    outer loop
      vertex 90.375 0 65
      vertex 88.875 37.4167 65
      vertex 88.875 0 65
    endloop
  endfacet
  facet normal 0 0 1
    outer loop
      vertex 15.75 0 65
      vertex 14.25 37.4167 65
      vertex 14.25 0 65
    endloop
  endfacet
  facet normal 1 -0 0
    outer loop
      vertex 15.75 0 65
      vertex 15.75 37.4167 1.5
      vertex 15.75 37.4167 65
    endloop
  endfacet
  facet normal 1 0 0
    outer loop
      vertex 15.75 37.4167 1.5
      vertex 15.75 0 65
      vertex 15.75 0 1.5
    endloop
  endfacet
  facet normal -1 0 0
    outer loop
      vertex 14.25 0 1.5
      vertex 14.25 37.4167 65
      vertex 14.25 37.4167 1.5
    endloop
  endfacet
  facet normal -1 -0 0
    outer loop
      vertex 14.25 37.4167 65
      vertex 14.25 0 1.5
      vertex 14.25 0 65
    endloop
  endfacet
  facet normal 0 -1 0
    outer loop
      vertex 90.375 37.4167 1.5
      vertex 163.5 37.4167 65
      vertex 90.375 37.4167 65
    endloop
  endfacet
  facet normal 0 -1 -0
    outer loop
      vertex 163.5 37.4167 65
      vertex 90.375 37.4167 1.5
      vertex 163.5 37.4167 1.5
    endloop
  endfacet
  facet normal 0 -1 0
    outer loop
      vertex 15.75 37.4167 1.5
      vertex 88.875 37.4167 65
      vertex 15.75 37.4167 65
    endloop
  endfacet
  facet normal 0 -1 -0
    outer loop
      vertex 88.875 37.4167 65
      vertex 15.75 37.4167 1.5
      vertex 88.875 37.4167 1.5
    endloop
  endfacet
  facet normal 0 -1 0
    outer loop
      vertex 0 37.4167 1.5
      vertex 14.25 37.4167 65
      vertex 0 37.4167 65
    endloop
  endfacet
  facet normal 0 -1 -0
    outer loop
      vertex 14.25 37.4167 65
      vertex 0 37.4167 1.5
      vertex 14.25 37.4167 1.5
    endloop
  endfacet
  facet normal 1 -0 0
    outer loop
      vertex 90.375 0 65
      vertex 90.375 37.4167 1.5
      vertex 90.375 37.4167 65
    endloop
  endfacet
  facet normal 1 0 0
    outer loop
      vertex 90.375 37.4167 1.5
      vertex 90.375 0 65
      vertex 90.375 0 1.5
    endloop
  endfacet
  facet normal -1 0 0
    outer loop
      vertex 88.875 0 1.5
      vertex 88.875 37.4167 65
      vertex 88.875 37.4167 1.5
    endloop
  endfacet
  facet normal -1 -0 0
    outer loop
      vertex 88.875 37.4167 65
      vertex 88.875 0 1.5
      vertex 88.875 0 65
    endloop
  endfacet
  facet normal 0 1 -0
    outer loop
      vertex 163.5 38.9167 1.5
      vertex 0 38.9167 65
      vertex 163.5 38.9167 65
    endloop
  endfacet
  facet normal 0 1 0
    outer loop
      vertex 0 38.9167 65
      vertex 163.5 38.9167 1.5
      vertex 0 38.9167 1.5
    endloop
  endfacet
  facet normal -1 0 0
    outer loop
      vertex 0 146.667 0.1
      vertex 0 145.167 1.5
      vertex 0 146.667 65
    endloop
  endfacet
  facet normal -1 0 0
    outer loop
      vertex 0 146.667 0.1
      vertex 0 38.9167 1.5
      vertex 0 145.167 1.5
    endloop
  endfacet
  facet normal -1 0 0
    outer loop
      vertex 0 38.9167 1.5
      vertex 0 37.4167 1.5
      vertex 0 38.9167 65
    endloop
  endfacet
  facet normal -1 0 0
    outer loop
      vertex 0 0 0.1
      vertex 0 38.9167 1.5
      vertex 0 146.667 0.1
    endloop
  endfacet
  facet normal -1 -0 0
    outer loop
      vertex 0 38.9167 1.5
      vertex 0 0 0.1
      vertex 0 37.4167 1.5
    endloop
  endfacet
  facet normal -1 -0 0
    outer loop
      vertex 0 37.4167 1.5
      vertex 0 0 0.1
      vertex 0 0 1.5
    endloop
  endfacet
  facet normal -1 -0 0
    outer loop
      vertex 0 146.667 65
      vertex 0 145.167 1.5
      vertex 0 145.167 65
    endloop
  endfacet
  facet normal -1 -0 0
    outer loop
      vertex 0 38.9167 65
      vertex 0 37.4167 1.5
      vertex 0 37.4167 65
    endloop
  endfacet
  facet normal 0 1 -0
    outer loop
      vertex 165.1 146.667 0.1
      vertex 0 146.667 65
      vertex 165.1 146.667 65
    endloop
  endfacet
  facet normal 0 1 0
    outer loop
      vertex 0 146.667 65
      vertex 165.1 146.667 0.1
      vertex 0 146.667 0.1
    endloop
  endfacet
  facet normal 0 -1 0
    outer loop
      vertex 0 0 0.1
      vertex 14.25 0 1.5
      vertex 0 0 1.5
    endloop
  endfacet
  facet normal 0 -1 -0
    outer loop
      vertex 14.25 0 1.5
      vertex 0 0 0.1
      vertex 15.75 0 1.5
    endloop
  endfacet
  facet normal 0 -1 -0
    outer loop
      vertex 15.75 0 1.5
      vertex 0 0 0.1
      vertex 88.875 0 1.5
    endloop
  endfacet
  facet normal 0 -1 -0
    outer loop
      vertex 88.875 0 1.5
      vertex 0 0 0.1
      vertex 90.375 0 1.5
    endloop
  endfacet
  facet normal 0 -1 0
    outer loop
      vertex 165.1 0 0.1
      vertex 90.375 0 1.5
      vertex 0 0 0.1
    endloop
  endfacet
  facet normal 0 -1 0
    outer loop
      vertex 14.25 0 1.5
      vertex 15.75 0 65
      vertex 14.25 0 65
    endloop
  endfacet
  facet normal 0 -1 -0
    outer loop
      vertex 15.75 0 65
      vertex 14.25 0 1.5
      vertex 15.75 0 1.5
    endloop
  endfacet
  facet normal 0 -1 0
    outer loop
      vertex 88.875 0 1.5
      vertex 90.375 0 65
      vertex 88.875 0 65
    endloop
  endfacet
  facet normal 0 -1 -0
    outer loop
      vertex 90.375 0 65
      vertex 88.875 0 1.5
      vertex 90.375 0 1.5
    endloop
  endfacet
  facet normal 0 -1 0
    outer loop
      vertex 163.5 0 1.5
      vertex 165.1 0 65
      vertex 163.5 0 65
    endloop
  endfacet
  facet normal 0 -1 0
    outer loop
      vertex 163.5 0 1.5
      vertex 165.1 0 0.1
      vertex 165.1 0 65
    endloop
  endfacet
  facet normal 0 -1 0
    outer loop
      vertex 90.375 0 1.5
      vertex 165.1 0 0.1
      vertex 163.5 0 1.5
    endloop
  endfacet
endsolid OpenSCAD_Model
