solid OpenSCAD_Model
  facet normal 1 -0 0
    outer loop
      vertex 165.1 0.1 65
      vertex 165.1 146.667 0.1
      vertex 165.1 146.667 65
    endloop
  endfacet
  facet normal 1 0 0
    outer loop
      vertex 165.1 146.667 0.1
      vertex 165.1 0.1 65
      vertex 165.1 0.1 0.1
    endloop
  endfacet
  facet normal 0 0 -1
    outer loop
      vertex 0 0.1 0.1
      vertex 165.1 146.667 0.1
      vertex 165.1 0.1 0.1
    endloop
  endfacet
  facet normal -0 0 -1
    outer loop
      vertex 165.1 146.667 0.1
      vertex 0 0.1 0.1
      vertex 0 146.667 0.1
    endloop
  endfacet
  facet normal 0 -1 0
    outer loop
      vertex 0 0.1 0.1
      vertex 165.1 0.1 65
      vertex 0 0.1 65
    endloop
  endfacet
  facet normal 0 -1 -0
    outer loop
      vertex 165.1 0.1 65
      vertex 0 0.1 0.1
      vertex 165.1 0.1 0.1
    endloop
  endfacet
  facet normal -1 0 0
    outer loop
      vertex 163.5 1.5 1.5
      vertex 163.5 146.667 65
      vertex 163.5 146.667 1.5
    endloop
  endfacet
  facet normal -1 -0 0
    outer loop
      vertex 163.5 146.667 65
      vertex 163.5 1.5 1.5
      vertex 163.5 1.5 65
    endloop
  endfacet
  facet normal -0 0 1
    outer loop
      vertex 90.375 146.667 1.5
      vertex 163.5 1.5 1.5
      vertex 163.5 146.667 1.5
    endloop
  endfacet
  facet normal 0 0 1
    outer loop
      vertex 163.5 1.5 1.5
      vertex 90.375 146.667 1.5
      vertex 90.375 1.5 1.5
    endloop
  endfacet
  facet normal -0 0 1
    outer loop
      vertex 15.75 146.667 1.5
      vertex 88.875 1.5 1.5
      vertex 88.875 146.667 1.5
    endloop
  endfacet
  facet normal 0 0 1
    outer loop
      vertex 88.875 1.5 1.5
      vertex 15.75 146.667 1.5
      vertex 15.75 1.5 1.5
    endloop
  endfacet
  facet normal -0 0 1
    outer loop
      vertex 0 146.667 1.5
      vertex 14.25 1.5 1.5
      vertex 14.25 146.667 1.5
    endloop
  endfacet
  facet normal 0 0 1
    outer loop
      vertex 14.25 1.5 1.5
      vertex 0 146.667 1.5
      vertex 0 1.5 1.5
    endloop
  endfacet
  facet normal 0 1 -0
    outer loop
      vertex 163.5 1.5 1.5
      vertex 90.375 1.5 65
      vertex 163.5 1.5 65
    endloop
  endfacet
  facet normal 0 1 0
    outer loop
      vertex 90.375 1.5 65
      vertex 163.5 1.5 1.5
      vertex 90.375 1.5 1.5
    endloop
  endfacet
  facet normal 0 1 -0
    outer loop
      vertex 88.875 1.5 1.5
      vertex 15.75 1.5 65
      vertex 88.875 1.5 65
    endloop
  endfacet
  facet normal 0 1 0
    outer loop
      vertex 15.75 1.5 65
      vertex 88.875 1.5 1.5
      vertex 15.75 1.5 1.5
    endloop
  endfacet
  facet normal 0 1 -0
    outer loop
      vertex 14.25 1.5 1.5
      vertex 0 1.5 65
      vertex 14.25 1.5 65
    endloop
  endfacet
  facet normal 0 1 0
    outer loop
      vertex 0 1.5 65
      vertex 14.25 1.5 1.5
      vertex 0 1.5 1.5
    endloop
  endfacet
  facet normal 0 0 1
    outer loop
      vertex 15.75 146.667 65
      vertex 14.25 146.667 65
      vertex 15.75 1.5 65
    endloop
  endfacet
  facet normal 0 0 1
    outer loop
      vertex 90.375 146.667 65
      vertex 88.875 146.667 65
      vertex 90.375 1.5 65
    endloop
  endfacet
  facet normal 0 0 1
    outer loop
      vertex 163.5 1.5 65
      vertex 165.1 146.667 65
      vertex 163.5 146.667 65
    endloop
  endfacet
  facet normal 0 0 1
    outer loop
      vertex 165.1 146.667 65
      vertex 163.5 1.5 65
      vertex 165.1 0.1 65
    endloop
  endfacet
  facet normal -0 0 1
    outer loop
      vertex 90.375 1.5 65
      vertex 165.1 0.1 65
      vertex 163.5 1.5 65
    endloop
  endfacet
  facet normal 0 0 1
    outer loop
      vertex 88.875 1.5 65
      vertex 90.375 1.5 65
      vertex 88.875 146.667 65
    endloop
  endfacet
  facet normal -0 0 1
    outer loop
      vertex 88.875 1.5 65
      vertex 165.1 0.1 65
      vertex 90.375 1.5 65
    endloop
  endfacet
  facet normal 0 0 1
    outer loop
      vertex 0 0.1 65
      vertex 88.875 1.5 65
      vertex 15.75 1.5 65
    endloop
  endfacet
  facet normal 0 0 1
    outer loop
      vertex 14.25 1.5 65
      vertex 15.75 1.5 65
      vertex 14.25 146.667 65
    endloop
  endfacet
  facet normal 0 0 1
    outer loop
      vertex 0 0.1 65
      vertex 15.75 1.5 65
      vertex 14.25 1.5 65
    endloop
  endfacet
  facet normal 0 0 1
    outer loop
      vertex 0 0.1 65
      vertex 14.25 1.5 65
      vertex 0 1.5 65
    endloop
  endfacet
  facet normal 0 0 1
    outer loop
      vertex 88.875 1.5 65
      vertex 0 0.1 65
      vertex 165.1 0.1 65
    endloop
  endfacet
  facet normal 1 -0 0
    outer loop
      vertex 15.75 1.5 65
      vertex 15.75 146.667 1.5
      vertex 15.75 146.667 65
    endloop
  endfacet
  facet normal 1 0 0
    outer loop
      vertex 15.75 146.667 1.5
      vertex 15.75 1.5 65
      vertex 15.75 1.5 1.5
    endloop
  endfacet
  facet normal -1 0 0
    outer loop
      vertex 14.25 1.5 1.5
      vertex 14.25 146.667 65
      vertex 14.25 146.667 1.5
    endloop
  endfacet
  facet normal -1 -0 0
    outer loop
      vertex 14.25 146.667 65
      vertex 14.25 1.5 1.5
      vertex 14.25 1.5 65
    endloop
  endfacet
  facet normal 1 -0 0
    outer loop
      vertex 90.375 1.5 65
      vertex 90.375 146.667 1.5
      vertex 90.375 146.667 65
    endloop
  endfacet
  facet normal 1 0 0
    outer loop
      vertex 90.375 146.667 1.5
      vertex 90.375 1.5 65
      vertex 90.375 1.5 1.5
    endloop
  endfacet
  facet normal -1 0 0
    outer loop
      vertex 88.875 1.5 1.5
      vertex 88.875 146.667 65
      vertex 88.875 146.667 1.5
    endloop
  endfacet
  facet normal -1 -0 0
    outer loop
      vertex 88.875 146.667 65
      vertex 88.875 1.5 1.5
      vertex 88.875 1.5 65
    endloop
  endfacet
  facet normal -1 0 0
    outer loop
      vertex 0 146.667 0.1
      vertex 0 1.5 1.5
      vertex 0 146.667 1.5
    endloop
  endfacet
  facet normal -1 0 0
    outer loop
      vertex 0 0.1 0.1
      vertex 0 1.5 1.5
      vertex 0 146.667 0.1
    endloop
  endfacet
  facet normal -1 0 0
    outer loop
      vertex 0 0.1 65
      vertex 0 1.5 1.5
      vertex 0 0.1 0.1
    endloop
  endfacet
  facet normal -1 0 0
    outer loop
      vertex 0 1.5 1.5
      vertex 0 0.1 65
      vertex 0 1.5 65
    endloop
  endfacet
  facet normal 0 1 0
    outer loop
      vertex 165.1 146.667 65
      vertex 163.5 146.667 1.5
      vertex 163.5 146.667 65
    endloop
  endfacet
  facet normal 0 1 0
    outer loop
      vertex 165.1 146.667 0.1
      vertex 90.375 146.667 1.5
      vertex 163.5 146.667 1.5
    endloop
  endfacet
  facet normal 0 1 0
    outer loop
      vertex 90.375 146.667 1.5
      vertex 165.1 146.667 0.1
      vertex 88.875 146.667 1.5
    endloop
  endfacet
  facet normal 0 1 0
    outer loop
      vertex 0 146.667 0.1
      vertex 88.875 146.667 1.5
      vertex 165.1 146.667 0.1
    endloop
  endfacet
  facet normal 0 1 0
    outer loop
      vertex 88.875 146.667 1.5
      vertex 0 146.667 0.1
      vertex 15.75 146.667 1.5
    endloop
  endfacet
  facet normal 0 1 -0
    outer loop
      vertex 165.1 146.667 0.1
      vertex 163.5 146.667 1.5
      vertex 165.1 146.667 65
    endloop
  endfacet
  facet normal 0 1 0
    outer loop
      vertex 15.75 146.667 1.5
      vertex 0 146.667 0.1
      vertex 14.25 146.667 1.5
    endloop
  endfacet
  facet normal 0 1 0
    outer loop
      vertex 14.25 146.667 1.5
      vertex 0 146.667 0.1
      vertex 0 146.667 1.5
    endloop
  endfacet
  facet normal 0 1 -0
    outer loop
      vertex 90.375 146.667 1.5
      vertex 88.875 146.667 65
      vertex 90.375 146.667 65
    endloop
  endfacet
  facet normal 0 1 0
    outer loop
      vertex 88.875 146.667 65
      vertex 90.375 146.667 1.5
      vertex 88.875 146.667 1.5
    endloop
  endfacet
  facet normal 0 1 -0
    outer loop
      vertex 15.75 146.667 1.5
      vertex 14.25 146.667 65
      vertex 15.75 146.667 65
    endloop
  endfacet
  facet normal 0 1 0
    outer loop
      vertex 14.25 146.667 65
      vertex 15.75 146.667 1.5
      vertex 14.25 146.667 1.5
    endloop
  endfacet
endsolid OpenSCAD_Model
